:SAMPLES-PER-SECOND 30
:FULLY-SPECIFIED
:DEGREES
278
root  14.7799 40.2352 -6.67361 -61.4556 -87.1924 76.0046
RightUpLeg  -21.2997 -13.4754 -12.2076
RightLeg  -0.592992 -13.888 4.9738
RightFoot  11.9119 -0.701765 3.80944
RightToes  0.00048216 0.542163 -0.142577
Spine  31.5641 -1.96584 -2.4004
Spine1  21.0545 -2.52617 -1.2081
HEad  -0.795934 -4.31848 -6.23105
LeftShoulder1  10.7964 -18.382 -42.8597
LeftArm  -5.69823 -38.2046 -23.3846
LeftForeArm  41.854 -4.76165 -9.60453
LeftHand  -0.25398 0.0180481 5.50724
RightShoulder  6.17095 12.1411 33.4915
RightArm  14.7049 42.7101 55.6502
RightForeArm  18.6552 16.3219 6.35893
RightHand  -1.35236 7.47119 -12.5957
LeftUpLeg  -22.2514 4.31914 3.68299
LeftLeg  -1.16051 10.8011 -4.97346
LeftFoot  9.82647 0.0141451 -0.397271
LeftToes  1.06241e-005 4.65855e-005 -8.18508e-006
279
root  14.5611 40.2887 -6.7066 -65.9422 -87.3189 79.5919
RightUpLeg  -20.064 -13.4125 -12.2484
RightLeg  -0.496086 -13.5216 4.95628
RightFoot  11.5464 -0.705806 3.87905
RightToes  0.00048216 0.542163 -0.142577
Spine  30.7099 -1.91351 -2.28652
Spine1  20.6203 -2.40005 -1.20713
HEad  -3.64928 -3.9136 -5.73493
LeftShoulder1  10.9487 -18.3927 -43.4799
LeftArm  -5.21058 -34.8658 -23.2026
LeftForeArm  41.1985 -5.92057 -9.41891
LeftHand  -0.25398 0.0180481 5.50724
RightShoulder  6.17803 12.0948 33.6532
RightArm  14.0298 41.5593 53.992
RightForeArm  19.2307 15.5173 6.76702
RightHand  -1.34969 7.3502 -12.6836
LeftUpLeg  -20.9871 4.43768 3.82917
LeftLeg  -0.911747 10.7766 -4.80149
LeftFoot  9.35593 0.0446772 -0.557516
LeftToes  1.06241e-005 4.65855e-005 -8.18508e-006
280
root  14.3212 40.3385 -6.74025 -72.3077 -87.3793 85.1298
RightUpLeg  -18.9746 -13.3399 -12.3085
RightLeg  -0.226701 -13.0944 4.82655
RightFoot  11.0856 -0.700145 3.91596
RightToes  0.00048216 0.542163 -0.142577
Spine  29.4658 -1.78942 -2.2806
Spine1  20.1609 -2.23684 -1.16508
HEad  -6.98878 -3.4029 -5.19148
LeftShoulder1  11.0873 -18.3804 -44.0881
LeftArm  -4.65065 -31.7422 -23.0023
LeftForeArm  40.4456 -6.87144 -9.21874
LeftHand  -0.25398 0.0180481 5.50724
RightShoulder  6.22206 12.1102 33.8941
RightArm  13.2711 40.1382 51.9907
RightForeArm  20.0495 14.7283 7.15611
RightHand  -1.32347 7.12043 -12.6603
LeftUpLeg  -19.7362 4.56292 3.93781
LeftLeg  -0.696407 10.8294 -4.68793
LeftFoot  8.86323 0.06686 -0.678799
LeftToes  1.06241e-005 4.65855e-005 -8.18508e-006
281
root  14.0613 40.3867 -6.76897 -78.7896 -87.3814 90.7484
RightUpLeg  -17.8331 -13.2805 -12.4176
RightLeg  0.103649 -12.6729 4.6575
RightFoot  10.5487 -0.690027 3.94275
RightToes  0.00048216 0.542163 -0.142577
Spine  28.1218 -1.7015 -2.29016
Spine1  19.4798 -2.09925 -1.18411
HEad  -10.458 -2.83302 -4.6825
LeftShoulder1  11.1897 -18.3429 -44.597
LeftArm  -3.9662 -28.6442 -22.7892
LeftForeArm  39.5747 -7.88009 -8.98429
LeftHand  -0.25398 0.0180481 5.50724
RightShoulder  6.35772 12.2408 34.4187
RightArm  12.6981 38.4926 49.5682
RightForeArm  21.142 13.9256 7.56961
RightHand  -1.25826 6.81837 -12.3417
LeftUpLeg  -18.4017 4.70859 4.02881
LeftLeg  -0.489403 10.8603 -4.62677
LeftFoot  8.29755 0.0918948 -0.823613
LeftToes  1.06241e-005 4.65855e-005 -8.18508e-006
282
root  13.7823 40.435 -6.79055 -83.512 -87.3679 94.4226
RightUpLeg  -16.3984 -13.2506 -12.6002
RightLeg  0.386008 -12.278 4.51041
RightFoot  9.94384 -0.682965 3.9979
RightToes  0.00048216 0.542163 -0.142577
Spine  26.8528 -1.69049 -2.25493
Spine1  18.6117 -2.02564 -1.24722
HEad  -13.7319 -2.22849 -4.34213
LeftShoulder1  11.2209 -18.2518 -44.9242
LeftArm  -3.55078 -25.7193 -22.7689
LeftForeArm  38.8875 -8.70428 -8.68648
LeftHand  -0.25398 0.0180481 5.50724
RightShoulder  6.53166 12.396 35.1085
RightArm  12.5939 36.6802 46.9752
RightForeArm  22.0478 13.1567 8.02825
RightHand  -1.21487 6.61994 -12.1186
LeftUpLeg  -16.8515 4.82508 4.1154
LeftLeg  -0.255931 10.7985 -4.52369
LeftFoot  7.60684 0.132744 -1.07382
LeftToes  1.06241e-005 4.65855e-005 -8.18508e-006
283
root  13.4823 40.4806 -6.8062 -88.0047 -87.3492 97.7538
RightUpLeg  -14.7812 -13.21 -12.8196
RightLeg  0.624607 -11.8306 4.34751
RightFoot  9.29632 -0.684972 4.10954
RightToes  0.00048216 0.542163 -0.142577
Spine  25.4996 -1.66358 -2.26168
Spine1  17.7498 -1.97325 -1.22107
HEad  -16.6163 -1.51857 -4.23078
LeftShoulder1  11.2069 -18.1219 -45.1484
LeftArm  -3.76051 -23.1746 -23.0025
LeftForeArm  38.6914 -9.05493 -8.37585
LeftHand  -0.25398 0.0180481 5.50724
RightShoulder  6.66014 12.4847 35.6731
RightArm  12.9783 34.7193 44.5763
RightForeArm  22.4765 12.5505 8.46308
RightHand  -1.21143 6.48493 -12.2138
LeftUpLeg  -15.1569 4.88945 4.19136
LeftLeg  0.00492512 10.7391 -4.34488
LeftFoot  6.83686 0.177952 -1.37268
LeftToes  1.06241e-005 4.65855e-005 -8.18508e-006
284
root  13.1605 40.5224 -6.81788 -94.06 -87.2994 102.735
RightUpLeg  -13.2427 -13.1104 -13.0167
RightLeg  0.832088 -11.3307 4.12776
RightFoot  8.65987 -0.70119 4.30497
RightToes  0.00048216 0.542163 -0.142577
Spine  23.8812 -1.56943 -2.3721
Spine1  16.95 -1.89578 -1.08731
HEad  -19.0336 -0.653558 -4.23172
LeftShoulder1  11.2193 -18.0078 -45.4513
LeftArm  -4.0854 -20.8798 -23.2159
LeftForeArm  38.5647 -9.36754 -8.07093
LeftHand  -0.25398 0.0180481 5.50724
RightShoulder  6.74054 12.5143 36.0883
RightArm  13.8141 32.6136 42.4499
RightForeArm  22.4865 12.2489 8.78624
RightHand  -1.19316 6.22271 -12.2901
LeftUpLeg  -13.4966 4.93789 4.25736
LeftLeg  0.227975 10.7793 -4.1603
LeftFoot  6.11255 0.209957 -1.60986
LeftToes  1.06241e-005 4.65855e-005 -8.18508e-006
